<svg xmlns="http://www.w3.org/2000/svg" version="1.1" viewBox="0 0 1624 2000" width="560" height="560" style="cursor: pointer;background:#ffffff8f;border-radius:50%;"><script xmlns="" type="text/javascript" src="chrome-extension://cmndjbecilbocjfkibfbifhngkdmjgog/core/scripts/inpage/sdk.script.js"/><path transform="translate(1329,127)" d="m0 0 2 1-28 21-14 11-16 13-11 9-14 12-16 15-12 11-32 32-4 5 2 4 13 14 11 14 12 17 12 19 12 23 10 24 6 21 4 23 1 10v26l-2 31-4 19-7 21-10 19-10 14-9 11-12 13-8 7-16 13-11 7-14 9-24 13-24 11-27 11-47 15-106 27-10 30-8 25-17 59-18 71-18 88-13 79-2 11v5l13 10 14 10 17 13 16 13 11 9 13 11 30 30 9 11 13 17 10 15 9 15 12 23 8 20 7 26 3 17 1 11v27l-2 16-5 24-5 18-7 17-12 24-8 12-11 15-12 14-9 10-16 16-11 9-14 12-14 10-33 22-17 10-10 6-6 2 5 19 15 41 17 38 8 24 3 16 1 8v22l-2 15-6 23-8 19-8 14-11 14-16 16-15 10-16 8-15 5-19 3h-18l-17-3-15-5-16-9-12-9-17-17-10-14-9-16-9-27-4-19-1-9v-22l3-20 5-19 8-21 11-27 11-31 3-8-29 12-16 7-20 8-3-1 56-28 13-5 4-9 7-23 9-34 10-52 6-40 10-78 17-109 16-88 10-48-5-2-21-14-23-16-16-12-13-10-15-13-13-12-15-15-9-11-10-12-12-18-8-14-7-13v-2l-9 4-4 1h-11l-10-3-10-9-5-11-1-11 3-10 5-8 7-6 11-4h7l-2-10v-36l3-20 5-21 8-23 14-27 8-12 10-13 12-14 17-17 11-9 13-10 19-12 16-9 25-12 19-8 36-12 37-10 45-11 57-12 10-19 12-24 12-22 15-27 11-19 7-11 12-20 9-14 14-21 11-16 12-17 14-19 14-18 11-14 11-13 12-14 13-15 6-7h2l2-4 10-10-1-5-9-9-7-8-16-16-8-7-13-12-10-8-16-12-26-17-22-13 2-1 22 10 23 13 24 16 21 16 11 9 12 11 8 7 14 14h3l7-8 18-18 8-7 7-7 8-7 13-12 11-9 14-12 13-10 18-14 16-11zm-157 141-9 11-10 11-8 10-22 28-26 36-10 15-11 17-14 22-16 27-12 22-9 16-7 14-10 19-13 27-14 32-2 7 6-1 25-6 26-8 30-11 26-12 18-10 17-12 13-11 8-8 12-16 7-14 5-17 3-18v-35l4 15 1 11v19l-2 18-4 15-8 19-7 11-8 10 1 3 8 4 5 6 3 7 1 13 5-2 11-8 13-10 19-19 14-21 5-11 6-23 2-13v-35l-4-23-6-21-5-13-11-24-12-21-12-18-14-19-4-5zm67 260-11 13-17 17-10 8-14 10-20 12-23 12-24 11-35 12-30 9-71 18-36 8-2 2 1 5 11-2 70-15 27-7 43-13 29-11 24-11 23-13 12-8 14-10 15-14 10-10 9-11 6-10zm-119 22-18 11-15 9-16 8-28 12-23 8-38 12-17 5-2 2v5l19-4 41-9 45-12 27-8 21-8 23-9-3-3-6-4-6-7-2-8zm-242 86-33 9-36 11-39 15-23 11-18 10-16 11-13 10-12 11-10 9-18 22-10 15-9 17-10 25-4 18-2 18v29l3 23 5 19 11 28 8 15 14 22 13 16 11 13 30 30 11 9 10 9 14 11 13 11 15 11 2-4 5-24v-5l-12-11-8-7-8-8-7-6-7-8-12-12-9-11-11-13-12-18-10-17-11-24-6-19-3-16-2-18-1-18-7-5-4-7v-12l4-7 5-4 7-2 9-27 12-24 10-15 12-16 14-15 14-13 20-15 18-11 16-9 15-7 27-11 39-13 1-5zm32 32-25 7-26 10 3 1 26-7 25-7 1-4zm-55 18 4 1zm-1 1m43 16-24 7-25 9-26 11-19 10-16 10-12 9-14 12-12 12-13 17-9 17 1 2 9-10 7-8 13-11 15-11 24-13 19-8 25-9 25-7 14-3h4l-33 12-26 12-18 10-18 12-13 10-15 14-13 16-11 18-8 21-4 17-1 10v12l3 19 6 19 7 16 10 15 8 10 9 10 19 19 8 7 6 5h1l11-46 12-42 6-24 8-26 8-27 18-55 15-43 8-22 11-27 2-8zm-54 400-3 27v12l11 11 8 7 10 11 1 3-11-10-10-8-9-7h-2l-7 73-3 44-3 77v125l3 38 1 8 3 1 17-11 11-7 18-13 13-10 16-13 14-13 8-7 9-10 11-12 10-13 13-20 9-16 1-6-3 2-3 5-8 11-11 13-8 8-7 8-11 10 2-3 7-8 9-10 9-11 7-10 11-18 7-14 8-26 3-19v-21l-4-20-6-18-8-16-7-11-9-12-9-10-7-8-25-25-8-7-13-11-17-13-18-14-18-13zm161 274-6 11-11 18-9 12-11 13-11 12-10 10-8 7-13 11-17 13-18 13-16 10-18 11-23 12 1 10 7 30 2 5 4-2 13-10 14-10 13-10 11-9 10-9 8-7 9-9 4-3v-2h2l7-8 11-11 7-9 10-13 11-16 6-10 8-16 10-25 4-15z" fill="#32308C"/>
<path transform="translate(1329,127)" d="m0 0 2 1-28 21-14 11-16 13-11 9-14 12-16 15-12 11-32 32-4 5 2 4 13 14 11 14 12 17 12 19 12 23 10 24 6 21 4 23 1 10v26l-2 31-4 19-7 21-10 19-10 14-9 11-12 13-8 7-16 13-11 7-14 9-24 13-24 11-27 11-47 15-106 27-10 30-8 25-17 59-18 71-18 88-13 79-3 16-1-2-6-2-12-8-1-2-4-2v-2l-4-1v-2l-4-1-11-9-5-4v-2l-5 1-6-4-10-9-8-7-3-3v-2h-2l-4-5v-2h-2l-9-11-4-4-3-5-3-3-4-7-3-3-6-11-4-6v-3h-2l-5-11-6-16-6-23-3-18-2-20 3-18 5-20 4-12 7-14 8-12 12-17 9-10 5-6 11-9 4-4-10 7-10 8-3 3-5 3h-2l-1 4-8 7-7 7-6 8-6 7-2 5h-2l-2 5-10 19-4 6-7 1-6-1-1 8-3 13-1 11 4 2 1 4h2l1 5 1 34 1 7 2 7 3 17 5 16-1 4-10-21-6-19-3-16-2-18-1-18-6-4-4-5-1-3v-12l4-7 6-5 6-1 9-27 12-24 10-15 12-16 14-15 7-7 11-9 17-13 18-11 16-9 15-7 27-11 39-13v-4l-8 1-32 9-33 10-39 15-23 11-18 10-16 11-13 10-12 11-9 8-18 22-10 15-9 17-10 25-4 18-2 18v29l3 23 5 19 11 28 8 15 14 22 13 16 11 13 29 29 11 9 10 9 14 11 13 11 15 11v9l-2 6-8-4-17-12-11-7-18-13-16-12-10-8-14-12-13-12-15-15-9-11-10-12-12-18-8-14-7-13v-2l-9 4-4 1h-11l-10-3-10-9-5-11-1-11 3-10 5-8 7-6 11-4h7l-2-10v-36l3-20 5-21 8-23 14-27 8-12 10-13 12-14 17-17 11-9 13-10 19-12 16-9 25-12 19-8 36-12 37-10 45-11 57-12 10-19 12-24 12-22 15-27 11-19 7-11 12-20 9-14 14-21 11-16 12-17 14-19 14-18 11-14 11-13 12-14 13-15 6-7h2l2-4 10-10-1-5-9-9-7-8-16-16-8-7-13-12-10-8-16-12-26-17-22-13 2-1 22 10 23 13 24 16 21 16 11 9 12 11 8 7 14 14h3l7-8 18-18 8-7 7-7 8-7 13-12 11-9 14-12 13-10 18-14 16-11zm-157 141-9 11-10 11-8 10-22 28-26 36-10 15-11 17-14 22-16 27-12 22-9 16-7 14-10 19-13 27-14 32-2 7 6-1 25-6 26-8 30-11 26-12 18-10 17-12 13-11 8-8 12-16 7-14 5-17 3-18v-35l4 15 1 11v19l-2 18-4 15-8 19-7 11-8 10 1 3 8 4 5 6 3 7 1 13 5-2 11-8 13-10 19-19 14-21 5-11 6-23 2-13v-35l-4-23-6-21-5-13-11-24-12-21-12-18-14-19-4-5zm67 260-11 13-17 17-10 8-14 10-20 12-23 12-24 11-35 12-30 9-71 18-36 8-2 2 1 5 11-2 70-15 27-7 43-13 29-11 24-11 23-13 12-8 14-10 15-14 10-10 9-11 6-10zm-119 22-18 11-15 9-16 8-28 12-23 8-38 12-17 5-2 2v5l19-4 41-9 45-12 27-8 21-8 23-9-3-3-6-4-6-7-2-8zm-210 118-25 7-26 10 3 1 26-7 25-7 1-4zm-55 18 4 1zm-1 1m43 16-24 7-25 9-26 11-19 10-16 10-12 9-14 12-12 12-13 17-9 17 1 2 9-10 7-8 13-11 15-11 24-13 19-8 25-9 25-7 14-3h4l-33 12-26 12-18 10-18 12-13 10-15 14-13 16-11 18-8 21-4 17-1 10v12l3 19 6 19 7 16 10 15 8 10 9 10 19 19 8 7 6 5h1l11-46 12-42 6-24 8-26 8-27 18-55 15-43 8-22 11-27 2-8z" fill="#32328D"/>
<path transform="translate(218,1505)" d="m0 0h280l54 1 16 4 12 6 13 9 11 11 7 11 6 12 3 9 2 14v14l-3 15-5 13-12 27-8 16-6 15-7 22-4 21-1 12v23l2 17 6 25 8 23 11 21 10 15 12 14 7 8 12 11 13 10 18 11 21 10 24 8 14 3 17 2h33l22-3 20-6 21-8 17-9 21-14 12-11 9-8 9-11 10-13 9-15 10-21 6-18 5-24 2-17v-24l-3-23-6-25-7-18-14-29-11-26-4-16v-23l3-14 5-12 6-10 8-10 10-9 12-8 13-5 14-3h382v39l-368 1-13 1-8 3-9 6-9 10-4 9-2 14 2 12 11 26 17 35 7 21 6 28 3 25v27l-4 29-4 19-9 27-13 26-7 11-10 14-8 10-11 12-8 8h-2v2l-11 9-15 11-13 8-14 8-25 10-23 7-20 4-22 2h-26l-22-2-23-5-21-7-22-9-18-10-15-10-14-11-13-12-12-12-11-14-10-14-12-21-8-17-7-21-6-23-3-20-1-12v-22l2-21 4-20 8-27 8-20 9-17 12-27 3-11v-13l-4-12-8-11-9-7-10-4-13-1h-319l-2-1v-39z" fill="#32318C"/>
<path transform="translate(949,588)" d="m0 0 2 1-11 25-1 7-1 5-4 3-12 4-26 6-13 2-1-4-8 1-32 9-33 10-39 15-23 11-18 10-16 11-13 10-12 11-9 8-18 22-10 15-9 17-10 25-4 18-2 18v29l3 23 5 19 11 28 8 15 14 22 13 16 11 13 29 29 11 9 10 9 14 11 13 11 15 11v9l-2 6-8-4-17-12-11-7-18-13-16-12-10-8-14-12-13-12-15-15-9-11-10-12-12-18-8-14-7-13v-2l-9 4-4 1h-11l-10-3-10-9-5-11-1-11 3-10 5-8 7-6 11-4h7l-2-10v-36l3-20 5-21 8-23 14-27 8-12 10-13 12-14 17-17 11-9 13-10 19-12 16-9 25-12 19-8 36-12 37-10 45-11z" fill="#DA1C7C"/>
<path transform="translate(769,729)" d="m0 0 2 1-14 12-5 5h-2l-2 4-8 9-9 13-10 15-5 9-7 20-5 21-2 15 4 33 5 20 5 15 6 15 1 4h2l4 8 6 9 3 5 4 5 3 5 5 5 3 5 8 9v2h2l4 5v2h2l7 8 10 9 8 6 7 1 5 5 11 9 4 2v2l4 1 1 2 4 2v2l4 2 14 8v2h2l1 8 7 7 4 2v2l5 2 5 4v2l4 1 5 4 2 1v2l4 1v2l5 2 5 4v2h3l5 5 9 7v2l5 2v2l4 1v2l4 2 5 4 7 8 15 16 5 5v2l3 1 4 7 8 11 6 8 8 13 6 15 5 11 5 17 2 15 1 20-6 30-7 23-9 21-4 8-4 6-8 11-11 13-8 8-7 8-12 11-2-1 12-13 9-11 10-12 11-17 8-14 7-19 5-19 2-14v-21l-4-20-1-9-2-9-3-5-4-9-8-15-9-14-9-12-6-7v-2h-2l-7-8-10-10-8-7-7-6-3-2v-2l-4-2-3-2v-2l-6-3v-2h-3v-2l-4-2-15-11-14-10-9-6-9-1-13-10-11-8-17-13-6-5-5-2v-2l-4-2-15-13-10-10-8-7-7-8-12-12-9-11-11-13-12-18-10-17-2-10-4-13-3-17-3-14-1-39h-2l-1-4-4-1-1-2 2-14 4-17h11l3-2 8-16 7-12h2l2-6 3-4h2l2-5 12-13 6-6h2l1-4 4-3h3l1-3 20-15z" fill="#200329"/>
<path transform="translate(943,666)" d="m0 0 1 2-8 25-10 30-8 25-17 59-18 71-18 88-13 79-3 16-1-2-6-2-12-8-1-2-4-2v-2l-4-1v-2l-4-1-11-9-5-4v-2l-2-1 11-46 12-42 6-24 8-26 8-27 18-55 15-43 8-22 11-27 4-10 4-8 7-15 1-5-2-1 13-1 14-3z" fill="#32318C"/>
<path transform="translate(850,1062)" d="m0 0 5 3 15 11 19 14 11 9 14 11 14 12 8 7 28 28 9 11 13 17 10 15 9 15 12 23 8 20 7 26 3 17 1 11v27l-2 16-5 24-5 18-7 17-12 24-8 12-11 15-12 14-9 10-16 16-11 9-14 12-14 10-33 22-15 9-5-1v-2l17-12 13-10 11-9 10-9 8-7 13-13h2l2-4 15-15 7-9 10-13 11-16 6-10 8-16 10-25 4-15-1-1-4 8-11 18-9 12-11 13-11 12-11 11-8 7-13 11-17 13-18 13-16 10-18 11-21 11h-2l-1 2-2-8 1-9 10-7 19-12 18-13 13-10 16-13 14-13 8-7 7-8 7-7 11-14 9-12 9-15 8-14 3-11 8-18 7-21 5-22 3-16-1-19-3-20-8-22-4-8-4-10-9-14-7-9-8-11-1-3-6-5-7-8-13-14v-2l-3-1-5-5-4-3v-2l-4-1-3-3-2-1v-2l-4-2-10-8v-2h-3l-5-5-5-3-1-2-3-1v-2l-5-2-3-3-3-1-5-5-5-3v-2l-5-2-7-7z" fill="#9D2C7E"/>
<path transform="translate(906,673)" d="m0 0h6l-1 7-6 13-4 8-4 3-24 7-25 9-26 11-19 10-16 10-12 9-14 12-11 11-13 17-9 17 5-5 12-13 12-10 15-11 24-13 19-8 25-9 25-7 14-3h5l-1 2-33 12-26 12-18 10-18 12-13 10-15 14-11 14-9 14-6 12-7 21-2 10-1 10v12l3 19 6 19 7 16 10 15 8 10 9 10 18 18 8 7 6 5v2l-3 1-6-4-10-9-8-7-3-3v-2h-2l-4-5v-2h-2l-9-11-4-4-3-5-3-3-4-7-3-3-6-11-4-6v-3h-2l-5-11-6-16-6-23-3-18-2-20 3-18 5-20 4-12 7-14 8-12 12-17 9-10 5-6 11-9 12-10 24-15 22-11 20-8 11-3 27-7z" fill="#DA1B7C"/>
<path transform="translate(1174,402)" d="m0 0 3 3 3 13 1 11v19l-2 18-4 15-8 19-7 11-8 10v2l8 4 6 7 3 7 1 14-13 8-15 7-4 1-8-5-7-8-1-2v-6l-35 21-16 8-28 12-23 8-38 12-17 4-1-3 5-11 5-13 4-6 36-9 33-11 19-7 26-12 18-10 17-12 13-11 7-7 12-16 7-14 5-17 3-18z" fill="#DA1C7C"/>
<path transform="translate(769,729)" d="m0 0 2 1-14 12-5 5h-2l-2 4-8 9-9 13-10 15-5 9-7 20-5 21-2 15 4 33 5 20 5 15 6 15 1 4h2l4 8 6 9 3 5 4 5 3 5 5 5 3 5 8 9v2h2l4 5v2h2l7 8 10 9 8 6 7 1 5 5 11 9 4 2v2l4 1 1 2 4 2v2l4 2 14 8v2h2l1 8 7 7 4 2v2l5 2 5 4v2l4 1 5 4 2 1v2l4 1v2l5 2 5 4v2h3l5 5 9 7v2l5 2v2l4 1v2l4 2 5 4 7 8 15 16 5 5v2l3 1 4 7 8 11 6 8 8 13 6 15 5 11 5 17 2 15 1 20-6 30-7 23-9 21-4 8-4 6-8 11-11 13-8 8-7 8-12 11-2-1 12-13 9-11 10-12 11-17 8-14 7-19 5-19 2-14v-21l-4-20-1-9-2-9-3-5-4-9-8-15-9-14-9-12-6-7v-2h-2l-7-8-10-10-8-7-7-6-3-2v-2l-4-2-3-2v-2l-6-3v-2h-3v-2l-4-2-15-11-14-10-9-6-9-1-13-10-11-8-17-13-6-5-5-2v-2l-4-2-15-13-10-10 2-1 8 5 8 6v2l4 2 10 8 4 3v2l4 2 11 9 8 6 6 4 16 10v2l9 2 5 3 8 6 17 13 8 6 5 3 10 8 11 9 12 12 8 7 5 5v2l5 2 1 4 4 2 4 4v3h2v2h2l3 5 6 9v2h2l3 6 1 4h2l13 26 3 10v4l2 1 3 11 1 1 1 10h2l1-6-1-20-3-14-4-11-9-19-11-17-1-4-5-5-8-12-3-3v-2h-2l-7-8-11-12-9-9-8-7-6-4-4-5-3-2v-2l-4-2-11-9-4-2v-2l-5-2-5-5-7-4-9-8-11-8-3-4-1-6-7-3-10-8-18-14-5-3v-2l-4-1v-2l-16-8v-2l-4-1v-2l-4-2-5-5v-2l-4-2-8-8-7-8-6-8-2-1-1-3-3-3-5-6v-2h-2l-2-4v-3h-2l-9-16-3-5-3-7-4-10-2-3-6-21-4-20-3-4v-2l-2 1-1 6-1 5 1 16v13l1 15 2 1 2 10 1 4 2 2-1 2 2 1 2 6 2 4 1 6 2 8-1 4-7-10-10-17-2-10-4-13-3-17-3-14-1-39h-2l-1-4-4-1-1-2 2-14 4-17h11l3-2 8-16 7-12h2l2-6 3-4h2l2-5 12-13 6-6h2l1-4 4-3h3l1-3 20-15z" fill="#2F0D4C"/>
<path transform="translate(1265,471)" d="m0 0 1 2-3 21-6 21-7 16-8 14-8 11-9 11-12 13-8 7-16 13-11 7-14 9-24 13-24 11-27 11-47 15-102 26h-4l3-11 5-15 1-2 9-1 74-16 27-7 43-13 29-11 24-11 23-13 12-8 14-10 15-14 9-9 9-11 6-10 1-4 13-24 5-11 4-11z" fill="#DA1D7B"/>
<path transform="translate(1006,1307)" d="m0 0 2 2 2 12 2 27 3 3-7 20-2 5-1 3-3 3-6 11-10 16-8 10-9 11-12 13-11 11-8 7-13 11-17 13-18 13-16 10-18 11-21 11h-2l-1 2-2-8 1-9 10-7 19-12 18-13 13-10 16-13 14-13 8-7 7-8 7-7 11-14 9-12 9-15 8-14 3-7 10-21 6-16 5-16h2z" fill="#DA1C7C"/>
<path transform="translate(846,689)" d="m0 0h6l-3 2-22 9-17 8-18 10-16 11-14 12-17 17-8 10-11 18-6 12-5 12-6 22-2 12 1 2 7-8 3 1 4-7 4-10 6-9 14-15 16-13 14-9 18-10 18-8 20-7 18-6 24-6 10-1-1 2-33 12-26 12-18 10-18 12-13 10-15 14-11 14-9 14-6 12-7 21-2 10-1 10v12l3 19 6 19 7 16 10 15 8 10 9 10 18 18 8 7 6 5v2l-3 1-6-4-10-9-8-7-3-3v-2h-2l-4-5v-2h-2l-9-11-4-4-3-5-3-3-4-7-3-3-6-11-4-6v-3h-2l-5-11-6-16-6-23-3-18-2-20 3-18 5-20 4-12 7-14 8-12 12-17 9-10 5-6 11-9 12-10 24-15 22-11 20-8z" fill="#9C2C7E"/>
<path transform="translate(1174,402)" d="m0 0 3 3 3 13 1 11v19l-2 18-4 15-8 19-7 11-8 10v2l8 4 6 7 3 7 1 14-13 8-15 7-4 1-8-5-7-8-1-2v-6l-8 5h-3l-1-5 4-6v-14l17-12 13-12 10-12 7-11 5-10 5-17 3-18z" fill="#DA217A"/>
<path transform="translate(567,694)" d="m0 0 13 1 8 4 9 9 4 10 1 10-2 9-6 9-8 7-6 3-4 1h-12l-10-4-7-6-6-10-2-5v-13l4-9 6-8 9-6z" fill="#E8755B"/>
<path transform="translate(596,885)" d="m0 0 14 6 6 5 5 8 3 8v12l-6 12-5 7-9 4-4 1h-11l-10-3-10-9-5-11-1-11 3-10 5-8 7-6 11-4z" fill="#36A6BE"/>
<path transform="translate(785,904)" d="m0 0 13 2 8 5 6 7 5 11v12l-7 14-7 6-7 3-5 1h-11l-8-3-8-6-6-9-2-6v-13l5-10 8-9 9-4z" fill="#E1226B"/>
<path transform="translate(817,546)" d="m0 0h7l10 3 6 4 7 8 3 7 1 5v8l-3 9-6 9-9 6-7 2h-12l-9-4-7-5-6-10-2-6v-11l4-10 8-9 9-5z" fill="#E1226B"/>
<path transform="translate(762,1035)" d="m0 0 6 2 12 9v2l4 2 10 8 4 3v2l4 2 11 9 8 6 6 4 16 10v2l9 2 5 3 8 6 17 13 8 6 5 3 10 8 11 9 12 12 8 7 5 5v2l5 2 1 4 4 2 4 4v3h2v2h2l3 5 6 9v2h2l3 6 1 4h2l13 26 3 10v4l2 1 3 11 1 1 1 10h2l1-6-1-20-3-14-4-11-9-19-11-17-1-4-5-5-8-12-3-3v-2h-2l-7-8-11-12-9-9-8-7-6-4-4-5-3-2v-2l-4-2-11-9-4-2v-2l-5-2-5-5-7-4-9-8-11-8-3-5h3l7 7 4 2v2l5 2 5 4v2l4 1 5 4 2 1v2l4 1v2l5 2 5 4v2h3l5 5 9 7v2l5 2v2l4 1v2l4 2 5 4 7 8 15 16 5 5v2l3 1 4 7 8 11 6 8 8 13 6 15 5 11 5 17 2 15 1 20-6 30-7 23-9 21-4 8-4 6-8 11-11 13-8 8-7 8-12 11-2-1 12-13 9-11 10-12 11-17 8-14 7-19 5-19 2-14v-21l-4-20-1-9-2-9-3-5-4-9-8-15-9-14-9-12-6-7v-2h-2l-7-8-10-10-8-7-7-6-3-2v-2l-4-2-3-2v-2l-6-3v-2h-3v-2l-4-2-15-11-14-10-9-6-9-1-13-10-11-8-17-13-6-5-5-2v-2l-4-2-15-13-10-10z" fill="#2F0E4D"/>
<path transform="translate(690,1063)" d="m0 0h14l10 5 8 9 3 7 1 5v8l-4 10-7 8-8 5-3 1h-15l-10-5-7-8-4-8-1-4v-8l4-11 6-8 9-5z" fill="#89B74B"/>
<path transform="translate(1060,690)" d="m0 0 11 1 8 4 7 7 4 8 1 4v10l-4 9-6 8-10 5h-16l-10-5-6-7-4-10v-11l4-10 6-7 10-5z" fill="#89B74B"/>
<path transform="translate(940,1007)" d="m0 0 12 2 9 6 6 9 2 6v11l-6 12-7 6-10 4h-12l-10-5-8-9-3-7v-14l5-10 8-7 7-3z" fill="#DA1C7B"/>
<path transform="translate(1063,470)" d="m0 0h11l10 4 7 7 4 9 1 9-3 9-7 9-6 4-7 2h-10l-8-3-6-5-6-10-1-3v-12l4-8 5-6 9-5z" fill="#89B74B"/>
<path transform="translate(940,1228)" d="m0 0 10 1 8 4 7 8 4 10v7l-4 11-4 5-10 6-4 1h-10l-8-3-8-7-5-9v-14l5-10 7-6 6-3z" fill="#E8755B"/>
<path transform="translate(998,1127)" d="m0 0h8l10 4 7 7 3 7v13l-4 8-7 7-8 3h-9l-8-3-5-5-4-5-3-8 1-10 5-10 5-4z" fill="#E1226B"/>
<path transform="translate(938,625)" d="m0 0 3 1h10l3 2-1 10-6 16-1 2-5 2-7 3-13 4-6 1-12-2-11-7-7-11-2-5 33-8 13-3 8-4z" fill="#2F0D4C"/>
<path transform="translate(1169,295)" d="m0 0 10 1 8 5 5 7 1 3v13l-5 8-7 6-10 2-9-2-8-7-4-7-1-10 3-8 5-6 8-4z" fill="#DA1C7B"/>
<path transform="translate(1150,521)" d="m0 0 5 3 6 4 5 6 3 7 1 14-13 8-15 7-4 1-8-5-7-8-2-9 8-8 8-7 9-9z" fill="#E5765A"/>
<path transform="translate(1206,457)" d="m0 0 8 1 8 4 6 9 1 2v12l-6 10-5 4-6 2-11-1-8-4-5-7-2-6 1-10 4-8 6-5z" fill="#36A6BD"/>
<path transform="translate(1067,1298)" d="m0 0h11l8 3 6 7 3 9-1 9-6 8-6 5-7 2-9-1-7-4-5-6-3-9 2-11 4-6 5-4z" fill="#E8755B"/>
<path transform="translate(949,588)" d="m0 0 2 1-11 25-1 7-1 5-4 3-12 4-26 6-13 2v-2l10-2-1-3-7-2-1-3 3-7 7-8 9-5 5-1h7l12 3 8 4 2-1 8-18 2-7z" fill="#9A2980"/>
<path transform="translate(844,1100)" d="m0 0 8 1 19 13 13 10 10 7v2h3v2l6 3v2l4 2 7 6 8 7 15 14 8 8v2h2l7 9 9 12 9 14 8 15 5 12 2 2 3 12v3h-2l-5-15-8-16-7-11-9-12-9-10-7-8-24-24-8-7-13-11-17-13-18-14-18-13z" fill="#9F2D7D"/>
<path transform="translate(901,1378)" d="m0 0h9l6 3 6 7 2 5v8l-3 6-5 6-6 3h-7l-7-3-5-4-4-8v-7l3-7 5-6z" fill="#36A6BE"/>
<path transform="translate(932,631)" d="m0 0 4 2 1 7-2 6-5 6-10 5-5 1h-10l-8-4-6-10v-4l8-3 17-4z" fill="#20032A"/>
<path transform="translate(596,885)" d="m0 0 14 6 6 5 5 8 3 8v12l-6 12-5 7-2-1-7-23-6-22-2-9z" fill="#312D87"/>
<path transform="translate(974,584)" d="m0 0 3 1-6 12-5 13-3 5-8 3-14 3h-3l1-7 8-18 4-8z" fill="#2F0D4C"/>
<path transform="translate(943,666)" d="m0 0 1 2-7 22-1 2-15 3-17 5h-2l3-10 6-12 1-5-2-1 13-1 14-3z" fill="#2F0D4C"/>
<path transform="translate(858,1442)" d="m0 0h7l6 3 5 6 1 2v7l-3 6-6 5-3 1h-7l-6-3-4-5-2-4v-6l6-9z" fill="#DB2179"/>
<path transform="translate(1141,516)" d="m0 0 11 1 2 2-4 2-2 4-8 7-9 9-8 7-5 4-4 3h-3l-1-5 4-6v-14l14-10 5-1z" fill="#E2226A"/>
<path transform="translate(672,851)" d="m0 0 5 2 1 4h2l1 5 1 34 1 7 2 7 3 17 5 16-1 4-10-21-6-19-3-16-2-18v-20z" fill="#32358D"/>
<path transform="translate(828,775)" d="m0 0h9l6 3 4 6v10l-6 7-5 2-9-1-5-4-3-8 1-6 4-6z" fill="#E7745B"/>
<path transform="translate(989,1324)" d="m0 0 3 1v7l1 6-8 19-4 8-4 6-8 11-11 13-8 8-7 8-12 11-2-1 12-13 9-11 10-12 11-17 8-14 7-19z" fill="#353E8D"/>
<path transform="translate(676,817)" d="m0 0 2 2-1 8-3 13-2 13-2 2-6-4-4-5-1-3v-12l4-7 6-5z" fill="#DA1D7B"/>
<path transform="translate(1195,384)" d="m0 0h7l6 4 3 4v8l-6 7-2 1h-7l-6-4-3-6 1-8z" fill="#36A6BD"/>
<path transform="translate(689,825)" d="m0 0 6 2 2 9-1 11-3 6-7 2-4-3v-2l-4-2-1-5 2-5h2l1-5 3-1v-3z" fill="#200329"/>
<path xmlns="http://www.w3.org/2000/svg" transform="translate(828,1516)" d="m0 0h2l2 16-16 8-19 9-16 8-40 17-39 16-8 4-3-1 4-8 34-16 17-9 19-9 19-10 29-16z" fill="#300448"/>
<path transform="translate(1121,237)" d="m0 0 7 1 6 5 1 2v6l-4 6-3 2h-8l-6-4-2-4 1-7 4-5z" fill="#8AB74B"/>
<path transform="translate(656,917)" d="m0 0 8 1 5 5 1 6-3 5-6 5-7-1-5-4-2-5 1-5 4-5z" fill="#A12C7D"/>
<path transform="translate(860,1527)" d="m0 0 6 1 6 6 1 7-6 7-2 1h-6l-5-3-3-5v-6l5-6z" fill="#35A5BE"/>
<path transform="translate(858,1442)" d="m0 0h7l6 3 2 4v8l-5 4-5 1v-2h-2v-3l-2 1v-3h-3l-7 1-2-4 5-7z" fill="#E2236A"/>
<path transform="translate(699,635)" d="m0 0 7 3 4 4 1 4-2 5-6 5h-7l-5-5-1-2v-6l3-5z" fill="#DA1D7B"/>
<path transform="translate(691,1588)" d="m0 0 2 2-2 5-16 6-18 8-20 8-12 5-3-1 56-28z" fill="#B23C76"/>
<path transform="translate(840,1142)" d="m0 0 7 6 15 14 10 12h-3l-10-9-10-8-9-7-2-2z" fill="#DC2E75"/>
<path xmlns="http://www.w3.org/2000/svg" transform="translate(782,1095)" d="m0 0 4 1 5 5 13 10 10 9 9 7 14 13 1 8-9-6-17-12-11-7-12-8-5-4h-3l-1-5 2-6z" fill="#2F0447"/>
<path transform="translate(1265,471)" d="m0 0 1 2-3 21-6 7-5 10h-2l-2 5-5 9-2-1 12-22 5-11 4-11z" fill="#9F307C"/>
<path transform="translate(691,1588)" d="m0 0 2 2-2 5-16 6-4 2h-4l1-5 17-8z" fill="#B23678"/>
<path transform="translate(881,1028)" d="m0 0 5 1 3 3v6l-3 3h-7l-4-4 1-5z" fill="#36A6BF"/>
<path transform="translate(1329,127)" d="m0 0 2 1-28 21-14 11-4 2-2-2 15-12 16-11z" fill="#49A4A0"/>
<path transform="translate(597,885)" d="m0 0 10 3 10 6 7 11 2 7v9l-4 12-6 7v-3l5-8 2-5v-12l-4-10-6-8-16-8z" fill="#9B2980"/>
<path transform="translate(665,1549)" d="m0 0h5l4 5-2 5-1 1h-7l-3-3v-5z" fill="#D62977"/>
<path transform="translate(1061,184)" d="m0 0 5 1 3 3-1 6-2 2-7-1-2-2 1-7z" fill="#89B84B"/>
<path transform="translate(699,635)" d="m0 0 1 3v6l-3 1-3 9-3-3-1-2v-6l3-5z" fill="#E2286A"/>
<path transform="translate(676,817)" d="m0 0 2 2-1 8-3 13-2 13-2 2-1-3 4-26 1-6-2-1z" fill="#9B297F"/>
<path transform="translate(906,673)" d="m0 0h6l-1 7-6 13-4 8h-3l4-8 6-16-8-1 2-2z" fill="#9D2B7E"/>
<path transform="translate(1021,1137)" d="m0 0 3 3 2 5v12l-2-1 1-2-3-1-1-6v-5h-2l1-4z" fill="#DB207A"/>
<path transform="translate(994,1336)" d="m0 0 1 3-8 18-4 7-1-3 7-15 4-9z" fill="#9B2980"/>
<path transform="translate(674,1595)" d="m0 0h3l1 5-7 3h-4l1-5z" fill="#A73579"/>
<path transform="translate(662,1551)" d="m0 0 4 1 1 3h2l1 5h-6l-3-3v-5z" fill="#AC2F7B"/>
<path transform="translate(1297,149)" d="m0 0h2l-1 4-12 9-3-2z" fill="#3E6F97"/>
<path transform="translate(945,664)" d="m0 0 4 2-3 2-8 24h-2l3-11 5-15z" fill="#9C2A7F"/>
<path transform="translate(1169,295)" d="m0 0 7 1v3l-6-1-1 2h-10l3-3z" fill="#AD3479"/>
<path transform="translate(981,1235)" d="m0 0 3 3 3 5 3 12v3h-2l-5-15-2-5z" fill="#A2367A"/>
<path transform="translate(973,591)" d="m0 0 1 3-6 15v4l2 1-5 1-1-3 5-11z" fill="#982B81"/>
<path transform="translate(856,1565)" d="m0 0 4 2-5 4-5 3-3-1 5-5z" fill="#364890"/>
<path transform="translate(831,1515)" d="m0 0h2l1 15-2 2-2-8z" fill="#9C2A7F"/>
<path transform="translate(816,932)" d="m0 0h1v9l-2 4-3-2 2-9z" fill="#DB2379"/>
<path transform="translate(660,917)" d="m0 0 5 2 4 4-1 4-5-2-1-5-4-2z" fill="#D6227A"/>
<path transform="translate(1329,127)" d="m0 0 2 1-16 12h-2l2-4z" fill="#58AD8E"/>
<path transform="translate(840,1142)" d="m0 0 6 5v2h-2l-2 2-4-3z" fill="#AB3D76"/>
<path transform="translate(658,935)" d="m0 0h7l-4 4-7-1-2-2z" fill="#DB3074"/>
<path transform="translate(1332,125)" d="m0 0 2 1h-3z" fill="#74B368"/>
<path transform="translate(1335,123)" d="m0 0 2 1h-3z" fill="#74B368"/>
<path transform="translate(1338,121)" d="m0 0 2 1z" fill="#89B84B"/>
<path transform="translate(1341,119)" d="m0 0 2 1z" fill="#89B84B"/>
<path transform="translate(1337,122)" d="m0 0" fill="#36A6BF"/>
<path transform="translate(1340,120)" d="m0 0" fill="#89B84B"/>
<path transform="translate(1343,118)" d="m0 0" fill="#89B84B"/>
<script xmlns=""/>
<script xmlns=""/></svg>
